<svg viewBox="0 0 48 48" xmlns="http://www.w3.org/2000/svg"><g data-name="Layer 2"><g data-name="invisible box" fill="none"><path d="M0 0h48v48H0z"/><path d="M0 0h48v48H0z"/></g><g data-name="icons Q2"><path d="M10 19.3h4.4v4.44H10zM4.6 19.3H9v4.44H4.6z"/><path d="M45.4 21.7a6.3 6.3 0 00-5.2-.6 6.6 6.6 0 00-2.9-4.4l-.5-.5-.5.6a6.1 6.1 0 00-1.1 4.2 5.6 5.6 0 001 2.8l-1.5.7a10.5 10.5 0 01-3 .5H2.2v.6a12.1 12.1 0 001 6.5l.4.8c2.8 4.6 7.7 6.6 13 6.6 10.3 0 18.7-4.4 22.7-14 2.6.2 5.2-.5 6.5-3l.2-.5zM10.8 33.5a2.3 2.3 0 110-4.6 2.3 2.3 0 110 4.6zM10 13.7h4.4v4.44H10z"/><path d="M26.5 19.3h4.4v4.44h-4.4zM21.1 8h4.4v4.44h-4.4zM21.1 19.3h4.4v4.44h-4.4zM15.6 13.7H20v4.44h-4.4zM21.1 13.7h4.4v4.44h-4.4zM15.6 19.3H20v4.44h-4.4z"/></g></g></svg>