<?xml version="1.0" standalone="no"?>
<!DOCTYPE svg PUBLIC "-//W3C//DTD SVG 20010904//EN"
 "http://www.w3.org/TR/2001/REC-SVG-20010904/DTD/svg10.dtd">
<svg version="1.0" xmlns="http://www.w3.org/2000/svg"
 width="1364.000000pt" height="1364.000000pt" viewBox="0 0 1364.000000 1364.000000"
 preserveAspectRatio="xMidYMid meet">
<metadata>
Created by potrace 1.14, written by Peter Selinger 2001-2017
</metadata>
<g transform="translate(0.000000,1364.000000) scale(0.100000,-0.100000)"
fill="#000000" stroke="none">
<path d="M1124 10977 c-108 -17 -210 -39 -221 -49 -7 -6 -13 -8 -13 -5 0 10
-129 -42 -205 -81 -294 -153 -523 -425 -623 -739 -62 -193 -61 -164 -61 -1549
0 -694 3 -1264 6 -1268 3 -3 8 -20 10 -38 31 -286 230 -619 483 -809 169 -126
335 -199 562 -244 73 -15 408 -18 2131 -18 l1957 0 1 -26 c0 -14 1 -518 2
-1118 l2 -1093 -40 -1 c-271 -3 -3656 0 -3662 4 -4 3 -8 235 -8 516 1 347 -2
511 -10 512 -31 4 -1403 4 -1418 1 -17 -4 -18 -36 -17 -586 1 -518 3 -592 20
-681 10 -55 23 -113 30 -130 6 -16 11 -31 11 -32 -2 -14 53 -148 87 -213 197
-371 571 -624 986 -667 79 -8 4262 -8 4341 0 73 8 195 35 245 55 14 5 28 10
32 11 17 3 47 15 108 43 254 116 473 326 598 573 28 55 54 113 56 125 1 3 7
19 13 35 16 38 43 141 48 180 3 17 7 41 10 55 7 28 18 221 15 260 -1 14 -1 31
-1 38 2 26 2 40 -1 125 -2 48 -1 87 2 87 3 0 4 15 3 33 -2 41 -3 78 -3 97 1 8
0 54 -2 103 -2 48 -1 87 2 87 3 0 4 17 3 38 -5 67 -5 243 0 248 3 3 1 19 -3
35 -5 17 -5 40 0 54 5 12 6 25 3 29 -8 8 -11 76 -4 76 4 0 5 17 4 38 -4 50 -6
254 -3 267 1 6 2 12 1 15 -7 19 -6 80 1 80 5 0 5 7 -1 17 -5 10 -5 26 -1 39 5
12 6 24 3 28 -10 9 -10 76 -1 76 5 0 6 4 3 10 -7 12 -9 189 -2 196 3 3 1 19
-3 35 -5 17 -5 40 0 54 5 12 6 25 3 29 -8 8 -11 76 -4 76 4 0 5 19 4 43 -2 23
-5 98 -8 167 -2 69 -6 136 -8 150 -14 81 -21 113 -44 190 -60 206 -198 425
-359 570 -167 151 -337 240 -559 296 -61 16 -67 16 -170 29 -33 4 -948 8
-2032 8 -1085 0 -1974 3 -1974 6 -1 3 -2 507 -3 1119 -1 1106 -1 1112 19 1113
26 0 3621 0 3660 0 l30 -1 -1 -515 c-1 -367 2 -515 10 -516 51 -5 1420 -2
1428 2 6 4 8 18 4 33 -3 14 -3 26 1 26 5 0 7 15 6 33 -2 41 -3 78 -3 97 1 8 0
54 -2 103 -2 48 -1 87 2 87 3 0 4 15 3 33 -2 41 -3 78 -3 97 1 8 0 54 -2 103
-2 48 -1 87 2 87 3 0 4 15 3 33 -2 41 -3 78 -3 97 1 8 0 54 -2 103 -2 48 1 87
5 87 5 0 6 4 3 9 -4 5 -8 45 -11 88 -27 433 -251 800 -630 1029 -92 56 -322
140 -405 149 -19 2 -35 4 -35 5 0 14 -4313 21 -4401 7z"/>
<path d="M7544 10346 c0 -571 2 -645 16 -648 8 -2 1379 -4 3045 -3 l3030 0 3
648 2 647 -3048 0 -3048 0 0 -644z"/>
<path d="M7546 7461 c-1 -3 -2 -1086 -2 -2406 l1 -2400 3048 -3 3047 -2 0 647
0 648 -2396 0 c-1429 0 -2398 3 -2401 9 -8 13 -7 2205 1 2213 3 4 923 7 2044
7 l2037 1 0 645 0 645 -2688 1 c-1478 0 -2689 -2 -2691 -5z"/>
</g>
</svg>
